<?xml version="1.0" standalone="no"?>
<!DOCTYPE svg PUBLIC "-//W3C//DTD SVG 20010904//EN"
 "http://www.w3.org/TR/2001/REC-SVG-20010904/DTD/svg10.dtd">
<svg version="1.0" xmlns="http://www.w3.org/2000/svg"
 width="1024.000000pt" height="1024.000000pt" viewBox="0 0 1024.000000 1024.000000"
 preserveAspectRatio="xMidYMid meet">

<g transform="translate(0.000000,1024.000000) scale(0.100000,-0.100000)"
fill="#000000" stroke="none">
<path d="M0 5120 l0 -5120 5120 0 5120 0 0 5120 0 5120 -5120 0 -5120 0 0
-5120z m5058 3004 c20 -8 51 -29 68 -45 l31 -30 21 26 c83 106 255 75 323 -57
29 -57 33 -108 14 -174 -16 -56 -25 -67 -168 -206 -117 -114 -158 -148 -178
-148 -40 0 -97 44 -234 179 -112 111 -127 130 -141 179 -50 173 110 341 264
276z m-620 -231 c6 -16 13 -37 17 -49 3 -12 17 -26 31 -33 14 -6 22 -16 19
-21 -3 -6 -1 -10 4 -10 22 0 10 -30 -14 -36 -18 -4 -33 -21 -48 -53 -23 -47
-53 -61 -67 -31 -31 67 -37 74 -68 82 -25 7 -32 14 -32 33 0 18 8 26 36 35 20
7 39 21 44 33 26 69 31 77 49 77 11 0 23 -11 29 -27z m1510 -19 c10 -28 26
-47 53 -62 22 -13 39 -26 39 -31 0 -12 -33 -39 -54 -42 -10 -2 -22 -11 -26
-19 -29 -63 -38 -75 -54 -75 -21 0 -32 16 -41 58 -6 28 -9 31 -57 41 -41 9
-37 42 6 63 34 16 46 32 66 86 15 43 49 33 68 -19z m-1970 -480 c199 -107 422
-273 510 -380 l31 -37 63 31 c35 17 84 36 109 43 82 22 79 31 79 -238 0 -255
3 -270 52 -306 33 -25 69 -17 109 23 l29 28 0 270 c0 239 2 271 17 283 12 11
54 14 167 14 83 0 163 -3 179 -8 l27 -7 0 -261 c0 -288 5 -315 59 -344 37 -19
71 -12 103 22 23 24 23 29 28 281 l5 257 38 -1 c23 -1 72 -18 120 -42 l82 -41
65 63 c102 99 195 174 315 251 142 93 269 157 303 153 36 -4 66 -52 101 -162
55 -172 63 -242 68 -596 l5 -325 39 -105 c77 -208 107 -394 95 -597 -5 -101
-11 -141 -31 -230 l-5 -23 -271 0 c-298 0 -315 -3 -339 -60 -16 -39 -5 -75 30
-102 24 -17 48 -19 265 -21 l240 -2 -2 -27 c-2 -29 -104 -243 -127 -266 -10
-11 -47 4 -198 79 -201 99 -216 102 -264 54 -28 -28 -31 -70 -9 -102 8 -12 81
-56 162 -98 82 -42 155 -83 163 -92 13 -13 4 -26 -90 -115 -306 -292 -717
-458 -1137 -458 -384 0 -751 125 -1043 357 -73 58 -210 195 -210 209 0 6 67
46 149 88 83 42 159 88 170 103 23 28 27 64 11 94 -12 22 -60 49 -89 49 -10 0
-99 -41 -196 -91 -141 -73 -179 -89 -187 -78 -23 34 -128 258 -128 272 0 15
22 17 225 17 255 0 286 6 309 61 17 40 5 80 -31 109 -24 19 -41 20 -303 20
l-277 0 -12 72 c-19 114 -25 314 -12 415 15 124 52 265 97 370 l38 88 7 360
c7 387 10 413 73 610 29 90 54 125 93 125 14 0 73 -25 131 -56z m-860 -796 c7
-7 12 -23 12 -36 0 -37 17 -58 60 -76 60 -24 54 -61 -15 -83 -24 -8 -31 -18
-40 -53 -19 -79 -65 -81 -87 -3 -13 45 -16 48 -61 61 -74 21 -74 63 -2 76 35
7 65 37 65 66 0 21 28 60 44 60 6 0 17 -5 24 -12z m4109 0 c4 -7 15 -33 23
-57 13 -39 20 -46 55 -56 24 -6 35 -14 28 -18 -6 -4 -10 -18 -7 -31 3 -19 -2
-25 -29 -32 -27 -8 -34 -17 -48 -59 -24 -77 -64 -74 -84 7 -10 42 -18 49 -70
65 -47 14 -44 40 9 62 39 17 46 26 57 63 19 65 45 87 66 56z m133 -164 c0 -8
-19 -13 -24 -6 -3 5 1 9 9 9 8 0 15 -2 15 -3z m-4390 -444 c56 -28 90 -83 90
-143 0 -43 -41 -153 -103 -276 -23 -46 -36 -46 -172 -7 -179 51 -225 90 -225
193 0 104 89 169 184 133 23 -8 27 -5 48 33 26 47 79 87 115 87 13 0 41 -9 63
-20z m4474 -11 c15 -11 36 -39 47 -61 16 -31 24 -38 37 -32 36 16 100 16 131
0 45 -24 74 -87 69 -147 -7 -68 -43 -112 -115 -139 -53 -20 -234 -70 -254 -70
-24 0 -129 251 -129 308 0 118 132 205 214 141z m-4316 -804 c16 -48 33 -67
75 -81 21 -7 33 -18 35 -32 3 -18 -5 -26 -41 -41 -51 -22 -59 -31 -67 -81 -10
-66 -62 -49 -81 27 -9 35 -17 44 -38 49 -87 18 -96 51 -22 82 41 17 51 26 61
58 25 77 57 84 78 19z m4116 -13 c15 -41 24 -53 45 -58 55 -11 72 -23 69 -46
-2 -15 -13 -26 -33 -31 -60 -18 -77 -37 -90 -99 -3 -19 -12 -28 -24 -28 -24 0
-37 17 -45 57 -8 36 -26 54 -70 68 -20 6 -32 18 -34 31 -3 20 8 28 70 48 9 3
22 23 28 45 11 44 36 74 54 68 6 -2 19 -27 30 -55z m-3681 -737 c10 -29 23
-44 45 -54 41 -19 40 -37 -3 -62 -22 -13 -37 -31 -41 -48 -11 -54 -23 -72 -46
-69 -17 2 -24 13 -33 52 -9 43 -14 50 -45 60 -47 15 -47 44 1 69 27 14 39 28
43 50 3 17 14 39 23 49 21 23 36 10 56 -47z m3257 23 c19 -52 26 -62 51 -76
l24 -13 -25 4 c-14 3 -35 9 -47 12 -19 6 -23 4 -23 -14 0 -11 5 -21 11 -21 5
0 7 5 4 10 -3 6 -1 10 5 10 7 0 9 -7 6 -16 -3 -9 -6 -23 -7 -32 0 -14 -2 -13
-9 3 -8 18 -9 17 -9 -7 -1 -33 24 -38 34 -7 4 11 9 18 13 15 3 -3 0 -16 -6
-29 -6 -12 -15 -38 -20 -57 -7 -28 -13 -35 -33 -35 -20 0 -26 7 -36 45 -6 25
-12 47 -13 50 -1 3 -2 8 -2 11 1 4 -4 6 -11 6 -33 -1 -47 5 -57 23 -9 17 -5
22 29 39 30 16 43 31 56 66 21 55 47 60 65 13z m76 -126 c-17 -16 -18 -16 -5
5 7 12 15 20 18 17 3 -2 -3 -12 -13 -22z m-3481 -481 c51 -23 91 -70 105 -123
34 -123 -99 -256 -217 -217 -75 24 -116 69 -134 147 -16 71 29 154 103 191 52
26 90 26 143 2z m-782 -38 c53 -26 67 -78 67 -250 l0 -153 153 0 c205 0 197 6
197 -154 0 -81 -4 -126 -12 -134 -8 -8 -62 -12 -175 -12 l-163 0 0 -183 c0
-100 4 -198 10 -217 15 -53 77 -136 130 -175 26 -19 83 -47 126 -62 l79 -28 3
-119 c2 -78 -1 -123 -9 -132 -8 -10 -26 -12 -68 -8 -216 22 -400 153 -503 358
-46 91 -58 167 -58 378 l0 187 -82 3 -83 3 0 145 0 145 83 3 82 3 0 155 c0
199 12 230 97 259 41 14 82 10 126 -12z m3167 5 c84 -42 81 -23 83 -625 2
-487 1 -533 -16 -588 -48 -154 -157 -289 -287 -354 -101 -51 -171 -65 -290
-59 -77 4 -109 11 -170 37 -174 73 -310 227 -355 401 -23 86 -23 245 -1 329
70 271 330 464 601 448 54 -3 102 -13 146 -31 36 -14 71 -26 78 -26 10 0 11
37 6 173 -7 161 -6 177 12 219 26 58 73 92 133 97 9 0 36 -9 60 -21z m938
-414 c214 -44 397 -207 473 -420 25 -72 39 -277 20 -312 l-12 -22 -444 0
c-374 0 -445 -2 -445 -14 0 -19 109 -119 154 -140 20 -9 61 -22 92 -29 71 -15
163 7 237 57 36 24 56 32 67 26 21 -11 186 -156 196 -172 9 -14 -59 -77 -125
-116 -90 -53 -168 -74 -291 -79 -199 -9 -320 38 -462 177 -69 68 -94 101 -122
160 -49 104 -66 178 -66 290 0 179 50 300 175 425 156 156 341 213 553 169z
m-2509 -9 c188 -45 347 -205 386 -392 11 -51 15 -148 15 -388 0 -293 -2 -324
-19 -362 -12 -25 -32 -48 -50 -57 -43 -23 -119 -20 -159 4 -59 36 -62 54 -62
407 0 313 -1 319 -24 368 -13 28 -36 62 -52 77 -110 103 -289 61 -339 -81 -12
-36 -15 -101 -15 -360 0 -289 -2 -320 -19 -358 -23 -50 -62 -73 -126 -73 -61
0 -100 22 -125 70 -19 37 -20 58 -20 372 0 364 7 425 57 528 50 103 199 223
309 249 61 14 173 12 243 -4z m3783 -8 c10 -15 10 -248 0 -263 -4 -6 -39 -14
-77 -17 -136 -13 -208 -53 -260 -148 l-30 -54 -5 -325 c-4 -259 -8 -329 -19
-346 -35 -52 -139 -70 -198 -34 -61 37 -62 43 -64 411 l-2 334 26 73 c58 166
187 295 352 353 107 38 258 46 277 16z m-4591 -50 c70 -47 69 -37 69 -567 0
-445 -2 -478 -19 -517 -24 -51 -63 -73 -129 -73 -62 0 -112 31 -129 80 -16 47
-18 965 -2 1007 13 34 47 72 74 83 39 17 101 11 136 -13z"/>
<path d="M3924 7065 c-13 -19 -17 -64 -21 -223 -4 -132 -2 -201 4 -205 8 -5
283 254 283 266 0 2 -45 45 -100 95 -109 100 -137 111 -166 67z"/>
<path d="M6212 6995 l-97 -94 106 -103 c58 -57 120 -121 137 -143 49 -64 54
-47 50 188 -3 185 -5 207 -22 226 -38 42 -69 29 -174 -74z"/>
<path d="M4236 5965 c-112 -40 -176 -182 -128 -286 20 -46 285 -325 330 -348
13 -7 34 -10 46 -7 12 3 91 76 177 163 123 125 158 167 167 199 16 55 15 97
-3 141 -63 149 -226 197 -333 96 l-35 -34 -31 30 c-35 33 -93 61 -128 61 -13
-1 -40 -7 -62 -15z"/>
<path d="M5626 5965 c-83 -29 -145 -120 -146 -211 0 -83 22 -117 169 -267 144
-147 178 -172 214 -161 28 9 279 255 319 313 23 33 32 58 35 105 4 53 1 68
-24 116 -41 77 -96 114 -171 115 -68 0 -125 -25 -149 -65 l-16 -28 -36 38
c-53 56 -121 72 -195 45z"/>
<path d="M4985 5287 c-40 -18 -55 -38 -62 -80 -7 -43 16 -83 81 -145 49 -45
55 -66 32 -110 -25 -47 -62 -74 -110 -79 -75 -9 -130 27 -178 116 -14 24 -24
31 -48 31 -44 0 -69 -16 -85 -55 -37 -88 56 -203 199 -247 120 -36 254 -6 320
73 l27 32 35 -41 c100 -118 334 -106 452 22 24 26 46 62 52 87 33 121 -88 180
-148 72 -13 -24 -37 -52 -54 -64 -42 -30 -121 -37 -163 -15 -33 18 -75 80 -75
111 0 9 29 45 65 80 61 60 65 67 65 108 0 108 -125 152 -200 72 -30 -32 -33
-31 -78 5 -45 36 -87 45 -127 27z"/>
<path d="M7192 5198 c-14 -14 -16 -42 -3 -34 7 5 23 46 17 46 -1 0 -7 -5 -14
-12z"/>
<path d="M3506 4453 c-6 -14 -5 -15 5 -6 7 7 10 15 7 18 -3 3 -9 -2 -12 -12z"/>
<path d="M6775 4460 c-6 -10 1 -14 18 -11 7 1 11 -19 10 -48 -1 -8 2 -10 8 -4
6 6 7 22 4 36 -7 27 -30 43 -40 27z"/>
<path d="M6680 4341 c0 -10 19 -25 25 -20 1 2 -3 10 -11 17 -8 7 -14 8 -14 3z"/>
<path d="M6777 4284 c-4 -4 -7 -14 -7 -23 0 -11 3 -12 11 -4 6 6 10 16 7 23
-2 6 -7 8 -11 4z"/>
<path d="M6802 4230 c0 -14 2 -19 5 -12 2 6 2 18 0 25 -3 6 -5 1 -5 -13z"/>
<path d="M5205 3062 c-69 -33 -107 -74 -143 -150 -54 -118 -34 -243 54 -341
137 -153 363 -114 466 81 19 35 23 58 23 128 0 99 -20 152 -81 219 -53 59
-105 83 -189 88 -62 4 -77 1 -130 -25z"/>
<path d="M6519 3107 c-25 -7 -58 -22 -75 -34 -49 -35 -124 -123 -124 -145 0
-5 135 -8 300 -8 l301 0 -16 31 c-28 53 -85 107 -142 135 -65 32 -172 41 -244
21z"/>
</g>
</svg>
